<?xml version="1.0" standalone="no"?>
<!DOCTYPE svg PUBLIC "-//W3C//DTD SVG 20010904//EN"
 "http://www.w3.org/TR/2001/REC-SVG-20010904/DTD/svg10.dtd">
<svg version="1.0" xmlns="http://www.w3.org/2000/svg"
 width="700.000000pt" height="700.000000pt" viewBox="0 0 700.000000 700.000000"
 preserveAspectRatio="xMidYMid meet">
<metadata>
Created by potrace 1.11, written by Peter Selinger 2001-2013
</metadata>
<g transform="translate(0.000000,700.000000) scale(0.100000,-0.100000)"
fill="#ffffff" stroke="none">
<path d="M4 3425 c2 -115 9 -237 16 -269 48 -241 298 -500 680 -703 559 -298
1406 -500 2280 -543 118 -6 238 -13 267 -16 l52 -5 21 -67 c109 -343 389 -594
755 -678 111 -25 338 -25 455 0 308 67 590 253 770 508 90 127 172 309 199
439 l12 55 82 24 c221 62 510 178 707 283 318 169 554 385 645 590 37 85 47
156 51 382 4 197 3 207 -11 154 -65 -257 -305 -504 -685 -706 -194 -104 -444
-205 -674 -273 -105 -32 -126 -32 -126 -4 0 59 -93 268 -162 363 -433 598
-1353 551 -1831 -93 -100 -136 -166 -288 -224 -516 l-8 -34 -100 2 c-247 6
-594 37 -870 78 -925 135 -1656 415 -2030 776 -144 138 -224 263 -260 407 -14
53 -15 43 -11 -154z m4655 -461 c297 -73 485 -334 468 -648 -6 -124 -25 -194
-81 -311 -83 -173 -227 -318 -401 -401 -117 -56 -187 -75 -311 -81 -314 -17
-575 171 -648 468 -23 93 -21 246 4 345 77 301 319 545 620 623 96 25 258 27
349 5z"/>
</g>
</svg>
